<?xml version="1.0" encoding="UTF-8" standalone="no"?>
<!DOCTYPE svg PUBLIC "-//W3C//DTD SVG 1.1//EN"
 "http://www.w3.org/Graphics/SVG/1.1/DTD/svg11.dtd">
<!-- Generated by graphviz version 13.1.2 (20250808.2320)
 -->
<!-- Title: G Pages: 1 -->
<svg width="1275pt" height="1084pt"
 viewBox="0.00 0.00 1275.00 1084.00" xmlns="http://www.w3.org/2000/svg" xmlns:xlink="http://www.w3.org/1999/xlink">
<g id="graph0" class="graph" transform="scale(1 1) rotate(0) translate(4 1080)">
<title>G</title>
<polygon fill="#f4f4f4" stroke="none" points="-4,4 -4,-1080 1271.2,-1080 1271.2,4 -4,4"/>
<!-- A -->
<g id="node1" class="node">
<title>A</title>
<path fill="#ff7eb6" stroke="#393939" d="M719.98,-1076C719.98,-1076 547.23,-1076 547.23,-1076 541.23,-1076 535.23,-1070 535.23,-1064 535.23,-1064 535.23,-1023.2 535.23,-1023.2 535.23,-1017.2 541.23,-1011.2 547.23,-1011.2 547.23,-1011.2 719.98,-1011.2 719.98,-1011.2 725.98,-1011.2 731.98,-1017.2 731.98,-1023.2 731.98,-1023.2 731.98,-1064 731.98,-1064 731.98,-1070 725.98,-1076 719.98,-1076"/>
<text xml:space="preserve" text-anchor="middle" x="633.6" y="-1040.05" font-family="IBM Plex Sans" font-size="14.00" fill="#161616">Context engineering strategy</text>
</g>
<!-- B -->
<g id="node2" class="node">
<title>B</title>
<polygon fill="#161616" stroke="#393939" points="633.6,-953.2 523.7,-913.6 633.6,-874 743.5,-913.6 633.6,-953.2"/>
<text xml:space="preserve" text-anchor="middle" x="633.6" y="-910.05" font-family="IBM Plex Sans" font-size="14.00" fill="#f4f4f4">Context components</text>
</g>
<!-- A&#45;&gt;B -->
<g id="edge1" class="edge">
<title>A&#45;&gt;B</title>
<path fill="none" stroke="#393939" stroke-width="2" d="M633.6,-1010.96C633.6,-996.61 633.6,-979.32 633.6,-963.37"/>
<polygon fill="#393939" stroke="#393939" stroke-width="2" points="636.05,-963.68 633.6,-956.68 631.15,-963.68 636.05,-963.68"/>
</g>
<!-- C1 -->
<g id="node3" class="node">
<title>C1</title>
<path fill="#78a9ff" stroke="#393939" d="M175.2,-816C175.2,-816 12,-816 12,-816 6,-816 0,-810 0,-804 0,-804 0,-763.2 0,-763.2 0,-757.2 6,-751.2 12,-751.2 12,-751.2 175.2,-751.2 175.2,-751.2 181.2,-751.2 187.2,-757.2 187.2,-763.2 187.2,-763.2 187.2,-804 187.2,-804 187.2,-810 181.2,-816 175.2,-816"/>
<text xml:space="preserve" text-anchor="middle" x="93.6" y="-780.05" font-family="IBM Plex Sans" font-size="14.00" fill="#161616">cinstr</text>
</g>
<!-- B&#45;&gt;C1 -->
<g id="edge2" class="edge">
<title>B&#45;&gt;C1</title>
<path fill="none" stroke="#393939" stroke-width="2" d="M564.45,-898.54C478.88,-880.82 328.88,-848.7 201.6,-816 200.01,-815.59 198.4,-815.17 196.79,-814.75"/>
<polygon fill="#393939" stroke="#393939" stroke-width="2" points="197.77,-812.48 190.38,-813.05 196.52,-817.22 197.77,-812.48"/>
</g>
<!-- C2 -->
<g id="node4" class="node">
<title>C2</title>
<path fill="#78a9ff" stroke="#393939" d="M391.2,-816C391.2,-816 228,-816 228,-816 222,-816 216,-810 216,-804 216,-804 216,-763.2 216,-763.2 216,-757.2 222,-751.2 228,-751.2 228,-751.2 391.2,-751.2 391.2,-751.2 397.2,-751.2 403.2,-757.2 403.2,-763.2 403.2,-763.2 403.2,-804 403.2,-804 403.2,-810 397.2,-816 391.2,-816"/>
<text xml:space="preserve" text-anchor="middle" x="309.6" y="-780.05" font-family="IBM Plex Sans" font-size="14.00" fill="#161616">cknow</text>
</g>
<!-- B&#45;&gt;C2 -->
<g id="edge3" class="edge">
<title>B&#45;&gt;C2</title>
<path fill="none" stroke="#393939" stroke-width="2" d="M581.9,-892.18C532.89,-872.81 458.23,-843.32 399.47,-820.11"/>
<polygon fill="#393939" stroke="#393939" stroke-width="2" points="400.41,-817.84 393,-817.55 398.61,-822.4 400.41,-817.84"/>
</g>
<!-- C3 -->
<g id="node5" class="node">
<title>C3</title>
<path fill="#78a9ff" stroke="#393939" d="M607.2,-816C607.2,-816 444,-816 444,-816 438,-816 432,-810 432,-804 432,-804 432,-763.2 432,-763.2 432,-757.2 438,-751.2 444,-751.2 444,-751.2 607.2,-751.2 607.2,-751.2 613.2,-751.2 619.2,-757.2 619.2,-763.2 619.2,-763.2 619.2,-804 619.2,-804 619.2,-810 613.2,-816 607.2,-816"/>
<text xml:space="preserve" text-anchor="middle" x="525.6" y="-780.05" font-family="IBM Plex Sans" font-size="14.00" fill="#161616">ctools</text>
</g>
<!-- B&#45;&gt;C3 -->
<g id="edge4" class="edge">
<title>B&#45;&gt;C3</title>
<path fill="none" stroke="#393939" stroke-width="2" d="M608.55,-882.91C593.76,-865.39 574.86,-842.99 558.84,-824"/>
<polygon fill="#393939" stroke="#393939" stroke-width="2" points="560.74,-822.45 554.35,-818.68 556.99,-825.61 560.74,-822.45"/>
</g>
<!-- C4 -->
<g id="node6" class="node">
<title>C4</title>
<path fill="#78a9ff" stroke="#393939" d="M823.2,-816C823.2,-816 660,-816 660,-816 654,-816 648,-810 648,-804 648,-804 648,-763.2 648,-763.2 648,-757.2 654,-751.2 660,-751.2 660,-751.2 823.2,-751.2 823.2,-751.2 829.2,-751.2 835.2,-757.2 835.2,-763.2 835.2,-763.2 835.2,-804 835.2,-804 835.2,-810 829.2,-816 823.2,-816"/>
<text xml:space="preserve" text-anchor="middle" x="741.6" y="-780.05" font-family="IBM Plex Sans" font-size="14.00" fill="#161616">cmem</text>
</g>
<!-- B&#45;&gt;C4 -->
<g id="edge5" class="edge">
<title>B&#45;&gt;C4</title>
<path fill="none" stroke="#393939" stroke-width="2" d="M658.65,-882.91C673.44,-865.39 692.34,-842.99 708.36,-824"/>
<polygon fill="#393939" stroke="#393939" stroke-width="2" points="710.21,-825.61 712.85,-818.68 706.46,-822.45 710.21,-825.61"/>
</g>
<!-- C5 -->
<g id="node7" class="node">
<title>C5</title>
<path fill="#78a9ff" stroke="#393939" d="M1039.2,-816C1039.2,-816 876,-816 876,-816 870,-816 864,-810 864,-804 864,-804 864,-763.2 864,-763.2 864,-757.2 870,-751.2 876,-751.2 876,-751.2 1039.2,-751.2 1039.2,-751.2 1045.2,-751.2 1051.2,-757.2 1051.2,-763.2 1051.2,-763.2 1051.2,-804 1051.2,-804 1051.2,-810 1045.2,-816 1039.2,-816"/>
<text xml:space="preserve" text-anchor="middle" x="957.6" y="-780.05" font-family="IBM Plex Sans" font-size="14.00" fill="#161616">cstate</text>
</g>
<!-- B&#45;&gt;C5 -->
<g id="edge6" class="edge">
<title>B&#45;&gt;C5</title>
<path fill="none" stroke="#393939" stroke-width="2" d="M685.3,-892.18C734.31,-872.81 808.97,-843.32 867.73,-820.11"/>
<polygon fill="#393939" stroke="#393939" stroke-width="2" points="868.59,-822.4 874.2,-817.55 866.79,-817.84 868.59,-822.4"/>
</g>
<!-- C6 -->
<g id="node8" class="node">
<title>C6</title>
<path fill="#78a9ff" stroke="#393939" d="M1255.2,-816C1255.2,-816 1092,-816 1092,-816 1086,-816 1080,-810 1080,-804 1080,-804 1080,-763.2 1080,-763.2 1080,-757.2 1086,-751.2 1092,-751.2 1092,-751.2 1255.2,-751.2 1255.2,-751.2 1261.2,-751.2 1267.2,-757.2 1267.2,-763.2 1267.2,-763.2 1267.2,-804 1267.2,-804 1267.2,-810 1261.2,-816 1255.2,-816"/>
<text xml:space="preserve" text-anchor="middle" x="1173.6" y="-780.05" font-family="IBM Plex Sans" font-size="14.00" fill="#161616">cquery</text>
</g>
<!-- B&#45;&gt;C6 -->
<g id="edge7" class="edge">
<title>B&#45;&gt;C6</title>
<path fill="none" stroke="#393939" stroke-width="2" d="M702.75,-898.54C788.32,-880.82 938.32,-848.7 1065.6,-816 1067.19,-815.59 1068.8,-815.17 1070.41,-814.75"/>
<polygon fill="#393939" stroke="#393939" stroke-width="2" points="1070.68,-817.22 1076.82,-813.05 1069.43,-812.48 1070.68,-817.22"/>
</g>
<!-- D -->
<g id="node9" class="node">
<title>D</title>
<path fill="#42be65" stroke="#393939" d="M715.2,-693.2C715.2,-693.2 552,-693.2 552,-693.2 546,-693.2 540,-687.2 540,-681.2 540,-681.2 540,-640.4 540,-640.4 540,-634.4 546,-628.4 552,-628.4 552,-628.4 715.2,-628.4 715.2,-628.4 721.2,-628.4 727.2,-634.4 727.2,-640.4 727.2,-640.4 727.2,-681.2 727.2,-681.2 727.2,-687.2 721.2,-693.2 715.2,-693.2"/>
<text xml:space="preserve" text-anchor="middle" x="633.6" y="-657.25" font-family="IBM Plex Sans" font-size="14.00" fill="#161616">Assembly and optimisation</text>
</g>
<!-- C1&#45;&gt;D -->
<g id="edge8" class="edge">
<title>C1&#45;&gt;D</title>
<path fill="none" stroke="#393939" stroke-width="2" d="M187.43,-754.84C192.21,-753.57 196.96,-752.35 201.6,-751.2 313.01,-723.52 442.04,-697.61 529.88,-680.88"/>
<polygon fill="#393939" stroke="#393939" stroke-width="2" points="530.18,-683.32 536.6,-679.6 529.27,-678.5 530.18,-683.32"/>
</g>
<!-- C2&#45;&gt;D -->
<g id="edge9" class="edge">
<title>C2&#45;&gt;D</title>
<path fill="none" stroke="#393939" stroke-width="2" d="M395.15,-750.7C439.35,-734.22 493.4,-714.07 538.86,-697.12"/>
<polygon fill="#393939" stroke="#393939" stroke-width="2" points="539.59,-699.46 545.3,-694.72 537.88,-694.87 539.59,-699.46"/>
</g>
<!-- C3&#45;&gt;D -->
<g id="edge10" class="edge">
<title>C3&#45;&gt;D</title>
<path fill="none" stroke="#393939" stroke-width="2" d="M553.98,-750.86C567.74,-735.46 584.4,-716.83 598.91,-700.6"/>
<polygon fill="#393939" stroke="#393939" stroke-width="2" points="600.56,-702.43 603.4,-695.58 596.9,-699.17 600.56,-702.43"/>
</g>
<!-- C4&#45;&gt;D -->
<g id="edge11" class="edge">
<title>C4&#45;&gt;D</title>
<path fill="none" stroke="#393939" stroke-width="2" d="M713.22,-750.86C699.46,-735.46 682.8,-716.83 668.29,-700.6"/>
<polygon fill="#393939" stroke="#393939" stroke-width="2" points="670.3,-699.17 663.8,-695.58 666.64,-702.43 670.3,-699.17"/>
</g>
<!-- C5&#45;&gt;D -->
<g id="edge12" class="edge">
<title>C5&#45;&gt;D</title>
<path fill="none" stroke="#393939" stroke-width="2" d="M872.05,-750.7C827.85,-734.22 773.8,-714.07 728.34,-697.12"/>
<polygon fill="#393939" stroke="#393939" stroke-width="2" points="729.32,-694.87 721.9,-694.72 727.61,-699.46 729.32,-694.87"/>
</g>
<!-- C6&#45;&gt;D -->
<g id="edge13" class="edge">
<title>C6&#45;&gt;D</title>
<path fill="none" stroke="#393939" stroke-width="2" d="M1079.77,-754.84C1074.99,-753.57 1070.24,-752.35 1065.6,-751.2 954.19,-723.52 825.16,-697.61 737.32,-680.88"/>
<polygon fill="#393939" stroke="#393939" stroke-width="2" points="737.93,-678.5 730.6,-679.6 737.02,-683.32 737.93,-678.5"/>
</g>
<!-- E -->
<g id="node10" class="node">
<title>E</title>
<polygon fill="#161616" stroke="#393939" points="633.6,-570.4 529.36,-530.8 633.6,-491.2 737.84,-530.8 633.6,-570.4"/>
<text xml:space="preserve" text-anchor="middle" x="633.6" y="-527.25" font-family="IBM Plex Sans" font-size="14.00" fill="#f4f4f4">RAG query analyzer</text>
</g>
<!-- D&#45;&gt;E -->
<g id="edge14" class="edge">
<title>D&#45;&gt;E</title>
<path fill="none" stroke="#393939" stroke-width="2" d="M633.6,-628.16C633.6,-613.81 633.6,-596.52 633.6,-580.57"/>
<polygon fill="#393939" stroke="#393939" stroke-width="2" points="636.05,-580.88 633.6,-573.88 631.15,-580.88 636.05,-580.88"/>
</g>
<!-- F1 -->
<g id="node11" class="node">
<title>F1</title>
<path fill="#78a9ff" stroke="#393939" d="M499.2,-433.2C499.2,-433.2 336,-433.2 336,-433.2 330,-433.2 324,-427.2 324,-421.2 324,-421.2 324,-380.4 324,-380.4 324,-374.4 330,-368.4 336,-368.4 336,-368.4 499.2,-368.4 499.2,-368.4 505.2,-368.4 511.2,-374.4 511.2,-380.4 511.2,-380.4 511.2,-421.2 511.2,-421.2 511.2,-427.2 505.2,-433.2 499.2,-433.2"/>
<text xml:space="preserve" text-anchor="middle" x="417.6" y="-397.25" font-family="IBM Plex Sans" font-size="14.00" fill="#161616">Vector RAG</text>
</g>
<!-- E&#45;&gt;F1 -->
<g id="edge15" class="edge">
<title>E&#45;&gt;F1</title>
<path fill="none" stroke="#393939" stroke-width="2" d="M593.48,-506.02C561.63,-487.15 516.53,-460.42 479.98,-438.76"/>
<polygon fill="#393939" stroke="#393939" stroke-width="2" points="481.24,-436.66 473.96,-435.2 478.74,-440.88 481.24,-436.66"/>
</g>
<!-- F2 -->
<g id="node12" class="node">
<title>F2</title>
<path fill="#ff7eb6" stroke="#393939" d="M715.2,-433.2C715.2,-433.2 552,-433.2 552,-433.2 546,-433.2 540,-427.2 540,-421.2 540,-421.2 540,-380.4 540,-380.4 540,-374.4 546,-368.4 552,-368.4 552,-368.4 715.2,-368.4 715.2,-368.4 721.2,-368.4 727.2,-374.4 727.2,-380.4 727.2,-380.4 727.2,-421.2 727.2,-421.2 727.2,-427.2 721.2,-433.2 715.2,-433.2"/>
<text xml:space="preserve" text-anchor="middle" x="633.6" y="-397.25" font-family="IBM Plex Sans" font-size="14.00" fill="#161616">Graph RAG</text>
</g>
<!-- E&#45;&gt;F2 -->
<g id="edge16" class="edge">
<title>E&#45;&gt;F2</title>
<path fill="none" stroke="#393939" stroke-width="2" d="M633.6,-490.7C633.6,-475.62 633.6,-458.36 633.6,-443.08"/>
<polygon fill="#393939" stroke="#393939" stroke-width="2" points="636.05,-443.4 633.6,-436.4 631.15,-443.4 636.05,-443.4"/>
</g>
<!-- F3 -->
<g id="node13" class="node">
<title>F3</title>
<path fill="#f1c21b" stroke="#393939" d="M931.2,-433.2C931.2,-433.2 768,-433.2 768,-433.2 762,-433.2 756,-427.2 756,-421.2 756,-421.2 756,-380.4 756,-380.4 756,-374.4 762,-368.4 768,-368.4 768,-368.4 931.2,-368.4 931.2,-368.4 937.2,-368.4 943.2,-374.4 943.2,-380.4 943.2,-380.4 943.2,-421.2 943.2,-421.2 943.2,-427.2 937.2,-433.2 931.2,-433.2"/>
<text xml:space="preserve" text-anchor="middle" x="849.6" y="-397.25" font-family="IBM Plex Sans" font-size="14.00" fill="#161616">other modalities</text>
</g>
<!-- E&#45;&gt;F3 -->
<g id="edge17" class="edge">
<title>E&#45;&gt;F3</title>
<path fill="none" stroke="#393939" stroke-width="2" d="M673.72,-506.02C705.57,-487.15 750.67,-460.42 787.22,-438.76"/>
<polygon fill="#393939" stroke="#393939" stroke-width="2" points="788.46,-440.88 793.24,-435.2 785.96,-436.66 788.46,-440.88"/>
</g>
<!-- G -->
<g id="node14" class="node">
<title>G</title>
<path fill="#42be65" stroke="#393939" d="M715.2,-310.4C715.2,-310.4 552,-310.4 552,-310.4 546,-310.4 540,-304.4 540,-298.4 540,-298.4 540,-257.6 540,-257.6 540,-251.6 546,-245.6 552,-245.6 552,-245.6 715.2,-245.6 715.2,-245.6 721.2,-245.6 727.2,-251.6 727.2,-257.6 727.2,-257.6 727.2,-298.4 727.2,-298.4 727.2,-304.4 721.2,-310.4 715.2,-310.4"/>
<text xml:space="preserve" text-anchor="middle" x="633.6" y="-274.45" font-family="IBM Plex Sans" font-size="14.00" fill="#161616">Fusion layer</text>
</g>
<!-- F1&#45;&gt;G -->
<g id="edge18" class="edge">
<title>F1&#45;&gt;G</title>
<path fill="none" stroke="#393939" stroke-width="2" d="M474.63,-367.9C503.3,-351.87 538.19,-332.36 567.96,-315.71"/>
<polygon fill="#393939" stroke="#393939" stroke-width="2" points="569.07,-317.9 573.98,-312.34 566.67,-313.62 569.07,-317.9"/>
</g>
<!-- F2&#45;&gt;G -->
<g id="edge19" class="edge">
<title>F2&#45;&gt;G</title>
<path fill="none" stroke="#393939" stroke-width="2" d="M633.6,-368.06C633.6,-353.5 633.6,-336.04 633.6,-320.45"/>
<polygon fill="#393939" stroke="#393939" stroke-width="2" points="636.05,-320.55 633.6,-313.55 631.15,-320.55 636.05,-320.55"/>
</g>
<!-- F3&#45;&gt;G -->
<g id="edge20" class="edge">
<title>F3&#45;&gt;G</title>
<path fill="none" stroke="#393939" stroke-width="2" d="M792.57,-367.9C763.9,-351.87 729.01,-332.36 699.24,-315.71"/>
<polygon fill="#393939" stroke="#393939" stroke-width="2" points="700.53,-313.62 693.22,-312.34 698.13,-317.9 700.53,-313.62"/>
</g>
<!-- H -->
<g id="node15" class="node">
<title>H</title>
<path fill="#161616" stroke="#393939" d="M715.2,-187.6C715.2,-187.6 552,-187.6 552,-187.6 546,-187.6 540,-181.6 540,-175.6 540,-175.6 540,-134.8 540,-134.8 540,-128.8 546,-122.8 552,-122.8 552,-122.8 715.2,-122.8 715.2,-122.8 721.2,-122.8 727.2,-128.8 727.2,-134.8 727.2,-134.8 727.2,-175.6 727.2,-175.6 727.2,-181.6 721.2,-187.6 715.2,-187.6"/>
<text xml:space="preserve" text-anchor="middle" x="633.6" y="-151.65" font-family="IBM Plex Sans" font-size="14.00" fill="#f4f4f4">LLM generator</text>
</g>
<!-- G&#45;&gt;H -->
<g id="edge21" class="edge">
<title>G&#45;&gt;H</title>
<path fill="none" stroke="#393939" stroke-width="2" d="M633.6,-245.26C633.6,-230.7 633.6,-213.24 633.6,-197.65"/>
<polygon fill="#393939" stroke="#393939" stroke-width="2" points="636.05,-197.75 633.6,-190.75 631.15,-197.75 636.05,-197.75"/>
</g>
<!-- I -->
<g id="node16" class="node">
<title>I</title>
<path fill="#161616" stroke="#393939" d="M715.2,-64.8C715.2,-64.8 552,-64.8 552,-64.8 546,-64.8 540,-58.8 540,-52.8 540,-52.8 540,-12 540,-12 540,-6 546,0 552,0 552,0 715.2,0 715.2,0 721.2,0 727.2,-6 727.2,-12 727.2,-12 727.2,-52.8 727.2,-52.8 727.2,-58.8 721.2,-64.8 715.2,-64.8"/>
<text xml:space="preserve" text-anchor="middle" x="633.6" y="-28.85" font-family="IBM Plex Sans" font-size="14.00" fill="#f4f4f4">Final answer</text>
</g>
<!-- H&#45;&gt;I -->
<g id="edge22" class="edge">
<title>H&#45;&gt;I</title>
<path fill="none" stroke="#393939" stroke-width="2" d="M633.6,-122.46C633.6,-107.9 633.6,-90.44 633.6,-74.85"/>
<polygon fill="#393939" stroke="#393939" stroke-width="2" points="636.05,-74.95 633.6,-67.95 631.15,-74.95 636.05,-74.95"/>
</g>
</g>
</svg>
