<?xml version="1.0" encoding="UTF-8" standalone="no"?>
<!DOCTYPE svg PUBLIC "-//W3C//DTD SVG 1.1//EN"
 "http://www.w3.org/Graphics/SVG/1.1/DTD/svg11.dtd">
<!-- Generated by graphviz version 13.1.2 (20250808.2320)
 -->
<!-- Title: G Pages: 1 -->
<svg width="708pt" height="578pt"
 viewBox="0.00 0.00 708.00 578.00" xmlns="http://www.w3.org/2000/svg" xmlns:xlink="http://www.w3.org/1999/xlink">
<g id="graph0" class="graph" transform="scale(1 1) rotate(0) translate(4 574.4)">
<title>G</title>
<polygon fill="#f4f4f4" stroke="none" points="-4,4 -4,-574.4 703.73,-574.4 703.73,4 -4,4"/>
<!-- A -->
<g id="node1" class="node">
<title>A</title>
<path fill="#ff7eb6" stroke="#393939" d="M418.2,-570.4C418.2,-570.4 255,-570.4 255,-570.4 249,-570.4 243,-564.4 243,-558.4 243,-558.4 243,-517.6 243,-517.6 243,-511.6 249,-505.6 255,-505.6 255,-505.6 418.2,-505.6 418.2,-505.6 424.2,-505.6 430.2,-511.6 430.2,-517.6 430.2,-517.6 430.2,-558.4 430.2,-558.4 430.2,-564.4 424.2,-570.4 418.2,-570.4"/>
<text xml:space="preserve" text-anchor="middle" x="336.6" y="-534.45" font-family="IBM Plex Sans" font-size="14.00" fill="#161616">User UI (React + Carbon)</text>
</g>
<!-- B -->
<g id="node2" class="node">
<title>B</title>
<polygon fill="#161616" stroke="#393939" points="336.6,-447.6 252.72,-408 336.6,-368.4 420.48,-408 336.6,-447.6"/>
<text xml:space="preserve" text-anchor="middle" x="336.6" y="-404.45" font-family="IBM Plex Sans" font-size="14.00" fill="#f4f4f4">Transport layer</text>
</g>
<!-- A&#45;&gt;B -->
<g id="edge1" class="edge">
<title>A&#45;&gt;B</title>
<path fill="none" stroke="#393939" stroke-width="2" d="M336.6,-505.36C336.6,-491.01 336.6,-473.72 336.6,-457.77"/>
<polygon fill="#393939" stroke="#393939" stroke-width="2" points="339.05,-458.08 336.6,-451.08 334.15,-458.08 339.05,-458.08"/>
</g>
<!-- C1 -->
<g id="node3" class="node">
<title>C1</title>
<path fill="#78a9ff" stroke="#393939" d="M304.2,-310.4C304.2,-310.4 141,-310.4 141,-310.4 135,-310.4 129,-304.4 129,-298.4 129,-298.4 129,-257.6 129,-257.6 129,-251.6 135,-245.6 141,-245.6 141,-245.6 304.2,-245.6 304.2,-245.6 310.2,-245.6 316.2,-251.6 316.2,-257.6 316.2,-257.6 316.2,-298.4 316.2,-298.4 316.2,-304.4 310.2,-310.4 304.2,-310.4"/>
<text xml:space="preserve" text-anchor="middle" x="222.6" y="-274.45" font-family="IBM Plex Sans" font-size="14.00" fill="#161616">Vite Proxy (local dev)</text>
</g>
<!-- B&#45;&gt;C1 -->
<g id="edge2" class="edge">
<title>B&#45;&gt;C1</title>
<path fill="none" stroke="#393939" stroke-width="2" d="M312.14,-379.54C296.13,-361.56 274.97,-337.8 257.24,-317.89"/>
<polygon fill="#393939" stroke="#393939" stroke-width="2" points="259.13,-316.33 252.64,-312.73 255.47,-319.59 259.13,-316.33"/>
</g>
<!-- C2 -->
<g id="node4" class="node">
<title>C2</title>
<path fill="#78a9ff" stroke="#393939" d="M543.73,-310.4C543.73,-310.4 357.48,-310.4 357.48,-310.4 351.48,-310.4 345.48,-304.4 345.48,-298.4 345.48,-298.4 345.48,-257.6 345.48,-257.6 345.48,-251.6 351.48,-245.6 357.48,-245.6 357.48,-245.6 543.73,-245.6 543.73,-245.6 549.73,-245.6 555.73,-251.6 555.73,-257.6 555.73,-257.6 555.73,-298.4 555.73,-298.4 555.73,-304.4 549.73,-310.4 543.73,-310.4"/>
<text xml:space="preserve" text-anchor="middle" x="450.6" y="-274.45" font-family="IBM Plex Sans" font-size="14.00" fill="#161616">Cloudflare Worker (production)</text>
</g>
<!-- B&#45;&gt;C2 -->
<g id="edge3" class="edge">
<title>B&#45;&gt;C2</title>
<path fill="none" stroke="#393939" stroke-width="2" d="M361.06,-379.54C377.07,-361.56 398.23,-337.8 415.96,-317.89"/>
<polygon fill="#393939" stroke="#393939" stroke-width="2" points="417.73,-319.59 420.56,-312.73 414.07,-316.33 417.73,-319.59"/>
</g>
<!-- D -->
<g id="node5" class="node">
<title>D</title>
<path fill="#42be65" stroke="#393939" d="M426.23,-187.6C426.23,-187.6 260.98,-187.6 260.98,-187.6 254.98,-187.6 248.98,-181.6 248.98,-175.6 248.98,-175.6 248.98,-134.8 248.98,-134.8 248.98,-128.8 254.98,-122.8 260.98,-122.8 260.98,-122.8 426.23,-122.8 426.23,-122.8 432.23,-122.8 438.23,-128.8 438.23,-134.8 438.23,-134.8 438.23,-175.6 438.23,-175.6 438.23,-181.6 432.23,-187.6 426.23,-187.6"/>
<text xml:space="preserve" text-anchor="middle" x="343.6" y="-151.65" font-family="IBM Plex Sans" font-size="14.00" fill="#161616">Cooper Hewitt GraphQL API</text>
</g>
<!-- C1&#45;&gt;D -->
<g id="edge4" class="edge">
<title>C1&#45;&gt;D</title>
<path fill="none" stroke="#393939" stroke-width="2" d="M254.39,-245.26C269.95,-229.73 288.81,-210.9 305.18,-194.56"/>
<polygon fill="#393939" stroke="#393939" stroke-width="2" points="306.66,-196.55 309.88,-189.87 303.19,-193.08 306.66,-196.55"/>
</g>
<!-- C2&#45;&gt;D -->
<g id="edge5" class="edge">
<title>C2&#45;&gt;D</title>
<path fill="none" stroke="#393939" stroke-width="2" d="M422.49,-245.26C408.85,-229.86 392.34,-211.23 377.96,-195"/>
<polygon fill="#393939" stroke="#393939" stroke-width="2" points="380.01,-193.61 373.53,-189.99 376.34,-196.86 380.01,-193.61"/>
</g>
<!-- E1 -->
<g id="node6" class="node">
<title>E1</title>
<path fill="#f1c21b" stroke="#393939" d="M425.2,-64.8C425.2,-64.8 262,-64.8 262,-64.8 256,-64.8 250,-58.8 250,-52.8 250,-52.8 250,-12 250,-12 250,-6 256,0 262,0 262,0 425.2,0 425.2,0 431.2,0 437.2,-6 437.2,-12 437.2,-12 437.2,-52.8 437.2,-52.8 437.2,-58.8 431.2,-64.8 425.2,-64.8"/>
<text xml:space="preserve" text-anchor="middle" x="343.6" y="-28.85" font-family="IBM Plex Sans" font-size="14.00" fill="#161616">PostgreSQL (metadata)</text>
</g>
<!-- D&#45;&gt;E1 -->
<g id="edge6" class="edge">
<title>D&#45;&gt;E1</title>
<path fill="none" stroke="#393939" stroke-width="2" d="M333.9,-122.46C332.61,-107.9 332.38,-90.44 333.22,-74.85"/>
<polygon fill="#393939" stroke="#393939" stroke-width="2" points="335.65,-75.1 333.7,-67.95 330.77,-74.76 335.65,-75.1"/>
</g>
<!-- E2 -->
<g id="node7" class="node">
<title>E2</title>
<path fill="#f1c21b" stroke="#393939" d="M175.2,-64.8C175.2,-64.8 12,-64.8 12,-64.8 6,-64.8 0,-58.8 0,-52.8 0,-52.8 0,-12 0,-12 0,-6 6,0 12,0 12,0 175.2,0 175.2,0 181.2,0 187.2,-6 187.2,-12 187.2,-12 187.2,-52.8 187.2,-52.8 187.2,-58.8 181.2,-64.8 175.2,-64.8"/>
<text xml:space="preserve" text-anchor="middle" x="93.6" y="-28.85" font-family="IBM Plex Sans" font-size="14.00" fill="#161616">Amazon S3 (media blobs)</text>
</g>
<!-- D&#45;&gt;E2 -->
<g id="edge7" class="edge">
<title>D&#45;&gt;E2</title>
<path fill="none" stroke="#393939" stroke-width="2" d="M277.59,-122.3C243.98,-106.06 202.99,-86.26 168.24,-69.47"/>
<polygon fill="#393939" stroke="#393939" stroke-width="2" points="169.64,-67.42 162.27,-66.58 167.51,-71.83 169.64,-67.42"/>
</g>
<!-- F -->
<g id="node8" class="node">
<title>F</title>
<path fill="#161616" stroke="#393939" d="M687.73,-64.8C687.73,-64.8 495.48,-64.8 495.48,-64.8 489.48,-64.8 483.48,-58.8 483.48,-52.8 483.48,-52.8 483.48,-12 483.48,-12 483.48,-6 489.48,0 495.48,0 495.48,0 687.73,0 687.73,0 693.73,0 699.73,-6 699.73,-12 699.73,-12 699.73,-52.8 699.73,-52.8 699.73,-58.8 693.73,-64.8 687.73,-64.8"/>
<text xml:space="preserve" text-anchor="middle" x="591.6" y="-28.85" font-family="IBM Plex Sans" font-size="14.00" fill="#f4f4f4">JSON Response (ids, titles, refs)</text>
</g>
<!-- D&#45;&gt;F -->
<g id="edge10" class="edge">
<title>D&#45;&gt;F</title>
<path fill="none" stroke="#393939" stroke-width="2" d="M409.08,-122.3C442.42,-106.06 483.08,-86.26 517.56,-69.47"/>
<polygon fill="#393939" stroke="#393939" stroke-width="2" points="518.24,-71.86 523.46,-66.59 516.09,-67.45 518.24,-71.86"/>
</g>
<!-- E1&#45;&gt;D -->
<g id="edge8" class="edge">
<title>E1&#45;&gt;D</title>
<path fill="none" stroke="#393939" stroke-width="2" d="M353.29,-64.93C354.58,-79.46 354.82,-96.92 354,-112.52"/>
<polygon fill="#393939" stroke="#393939" stroke-width="2" points="351.56,-112.29 353.51,-119.44 356.45,-112.63 351.56,-112.29"/>
</g>
<!-- E2&#45;&gt;A -->
<g id="edge9" class="edge">
<title>E2&#45;&gt;A</title>
<path fill="none" stroke="#393939" stroke-width="2" d="M89.56,-65.29C84.2,-118.51 79.14,-227.74 114.6,-310.4 149.3,-391.28 227.18,-459.48 280.81,-499.31"/>
<polygon fill="#393939" stroke="#393939" stroke-width="2" points="279.33,-501.27 286.43,-503.43 282.23,-497.32 279.33,-501.27"/>
</g>
<!-- F&#45;&gt;A -->
<g id="edge11" class="edge">
<title>F&#45;&gt;A</title>
<path fill="none" stroke="#393939" stroke-width="2" d="M596.01,-65.04C602,-118.37 608.06,-228.36 570.6,-310.4 533.16,-392.4 451.61,-460.15 395.41,-499.59"/>
<polygon fill="#393939" stroke="#393939" stroke-width="2" points="394.15,-497.48 389.79,-503.48 396.94,-501.5 394.15,-497.48"/>
</g>
</g>
</svg>
