<?xml version="1.0" encoding="UTF-8" standalone="no"?>
<!DOCTYPE svg PUBLIC "-//W3C//DTD SVG 1.1//EN"
 "http://www.w3.org/Graphics/SVG/1.1/DTD/svg11.dtd">
<!-- Generated by graphviz version 13.1.2 (20250808.2320)
 -->
<!-- Title: G Pages: 1 -->
<svg width="1275pt" height="1084pt"
 viewBox="0.00 0.00 1275.00 1084.00" xmlns="http://www.w3.org/2000/svg" xmlns:xlink="http://www.w3.org/1999/xlink">
<g id="graph0" class="graph" transform="scale(1 1) rotate(0) translate(4 1080)">
<title>G</title>
<polygon fill="#f4f4f4" stroke="none" points="-4,4 -4,-1080 1271.2,-1080 1271.2,4 -4,4"/>
<!-- A -->
<g id="node1" class="node">
<title>A</title>
<path fill="#ff7eb6" stroke="#393939" d="M721.1,-1076C721.1,-1076 546.1,-1076 546.1,-1076 540.1,-1076 534.1,-1070 534.1,-1064 534.1,-1064 534.1,-1023.2 534.1,-1023.2 534.1,-1017.2 540.1,-1011.2 546.1,-1011.2 546.1,-1011.2 721.1,-1011.2 721.1,-1011.2 727.1,-1011.2 733.1,-1017.2 733.1,-1023.2 733.1,-1023.2 733.1,-1064 733.1,-1064 733.1,-1070 727.1,-1076 721.1,-1076"/>
<text xml:space="preserve" text-anchor="middle" x="633.6" y="-1040.05" font-family="IBM Plex Sans" font-size="14.00" fill="#161616">Context Engineering Strategy</text>
</g>
<!-- B -->
<g id="node2" class="node">
<title>B</title>
<polygon fill="#161616" stroke="#393939" points="633.6,-953.2 522.01,-913.6 633.6,-874 745.19,-913.6 633.6,-953.2"/>
<text xml:space="preserve" text-anchor="middle" x="633.6" y="-910.05" font-family="IBM Plex Sans" font-size="14.00" fill="#f4f4f4">Context Components</text>
</g>
<!-- A&#45;&gt;B -->
<g id="edge1" class="edge">
<title>A&#45;&gt;B</title>
<path fill="none" stroke="#393939" stroke-width="2" d="M633.6,-1010.96C633.6,-996.61 633.6,-979.32 633.6,-963.37"/>
<polygon fill="#393939" stroke="#393939" stroke-width="2" points="636.05,-963.68 633.6,-956.68 631.15,-963.68 636.05,-963.68"/>
</g>
<!-- C1 -->
<g id="node3" class="node">
<title>C1</title>
<path fill="#78a9ff" stroke="#393939" d="M175.2,-816C175.2,-816 12,-816 12,-816 6,-816 0,-810 0,-804 0,-804 0,-763.2 0,-763.2 0,-757.2 6,-751.2 12,-751.2 12,-751.2 175.2,-751.2 175.2,-751.2 181.2,-751.2 187.2,-757.2 187.2,-763.2 187.2,-763.2 187.2,-804 187.2,-804 187.2,-810 181.2,-816 175.2,-816"/>
<text xml:space="preserve" text-anchor="middle" x="93.6" y="-780.05" font-family="IBM Plex Sans" font-size="14.00" fill="#161616">cinstr</text>
</g>
<!-- B&#45;&gt;C1 -->
<g id="edge2" class="edge">
<title>B&#45;&gt;C1</title>
<path fill="none" stroke="#393939" stroke-width="2" d="M563.69,-898.38C478,-880.63 328.51,-848.6 201.6,-816 200.01,-815.59 198.4,-815.17 196.79,-814.75"/>
<polygon fill="#393939" stroke="#393939" stroke-width="2" points="197.77,-812.48 190.38,-813.05 196.52,-817.22 197.77,-812.48"/>
</g>
<!-- C2 -->
<g id="node4" class="node">
<title>C2</title>
<path fill="#78a9ff" stroke="#393939" d="M391.2,-816C391.2,-816 228,-816 228,-816 222,-816 216,-810 216,-804 216,-804 216,-763.2 216,-763.2 216,-757.2 222,-751.2 228,-751.2 228,-751.2 391.2,-751.2 391.2,-751.2 397.2,-751.2 403.2,-757.2 403.2,-763.2 403.2,-763.2 403.2,-804 403.2,-804 403.2,-810 397.2,-816 391.2,-816"/>
<text xml:space="preserve" text-anchor="middle" x="309.6" y="-780.05" font-family="IBM Plex Sans" font-size="14.00" fill="#161616">cknow</text>
</g>
<!-- B&#45;&gt;C2 -->
<g id="edge3" class="edge">
<title>B&#45;&gt;C2</title>
<path fill="none" stroke="#393939" stroke-width="2" d="M581.54,-892.03C532.56,-872.68 458.18,-843.3 399.58,-820.15"/>
<polygon fill="#393939" stroke="#393939" stroke-width="2" points="400.54,-817.89 393.13,-817.6 398.74,-822.45 400.54,-817.89"/>
</g>
<!-- C3 -->
<g id="node5" class="node">
<title>C3</title>
<path fill="#78a9ff" stroke="#393939" d="M607.2,-816C607.2,-816 444,-816 444,-816 438,-816 432,-810 432,-804 432,-804 432,-763.2 432,-763.2 432,-757.2 438,-751.2 444,-751.2 444,-751.2 607.2,-751.2 607.2,-751.2 613.2,-751.2 619.2,-757.2 619.2,-763.2 619.2,-763.2 619.2,-804 619.2,-804 619.2,-810 613.2,-816 607.2,-816"/>
<text xml:space="preserve" text-anchor="middle" x="525.6" y="-780.05" font-family="IBM Plex Sans" font-size="14.00" fill="#161616">ctools</text>
</g>
<!-- B&#45;&gt;C3 -->
<g id="edge4" class="edge">
<title>B&#45;&gt;C3</title>
<path fill="none" stroke="#393939" stroke-width="2" d="M608.28,-882.59C593.48,-865.05 574.64,-842.72 558.68,-823.81"/>
<polygon fill="#393939" stroke="#393939" stroke-width="2" points="560.61,-822.29 554.22,-818.52 556.86,-825.45 560.61,-822.29"/>
</g>
<!-- C4 -->
<g id="node6" class="node">
<title>C4</title>
<path fill="#78a9ff" stroke="#393939" d="M823.2,-816C823.2,-816 660,-816 660,-816 654,-816 648,-810 648,-804 648,-804 648,-763.2 648,-763.2 648,-757.2 654,-751.2 660,-751.2 660,-751.2 823.2,-751.2 823.2,-751.2 829.2,-751.2 835.2,-757.2 835.2,-763.2 835.2,-763.2 835.2,-804 835.2,-804 835.2,-810 829.2,-816 823.2,-816"/>
<text xml:space="preserve" text-anchor="middle" x="741.6" y="-780.05" font-family="IBM Plex Sans" font-size="14.00" fill="#161616">cmem</text>
</g>
<!-- B&#45;&gt;C4 -->
<g id="edge5" class="edge">
<title>B&#45;&gt;C4</title>
<path fill="none" stroke="#393939" stroke-width="2" d="M658.92,-882.59C673.72,-865.05 692.56,-842.72 708.52,-823.81"/>
<polygon fill="#393939" stroke="#393939" stroke-width="2" points="710.34,-825.45 712.98,-818.52 706.59,-822.29 710.34,-825.45"/>
</g>
<!-- C5 -->
<g id="node7" class="node">
<title>C5</title>
<path fill="#78a9ff" stroke="#393939" d="M1039.2,-816C1039.2,-816 876,-816 876,-816 870,-816 864,-810 864,-804 864,-804 864,-763.2 864,-763.2 864,-757.2 870,-751.2 876,-751.2 876,-751.2 1039.2,-751.2 1039.2,-751.2 1045.2,-751.2 1051.2,-757.2 1051.2,-763.2 1051.2,-763.2 1051.2,-804 1051.2,-804 1051.2,-810 1045.2,-816 1039.2,-816"/>
<text xml:space="preserve" text-anchor="middle" x="957.6" y="-780.05" font-family="IBM Plex Sans" font-size="14.00" fill="#161616">cstate</text>
</g>
<!-- B&#45;&gt;C5 -->
<g id="edge6" class="edge">
<title>B&#45;&gt;C5</title>
<path fill="none" stroke="#393939" stroke-width="2" d="M685.66,-892.03C734.64,-872.68 809.02,-843.3 867.62,-820.15"/>
<polygon fill="#393939" stroke="#393939" stroke-width="2" points="868.46,-822.45 874.07,-817.6 866.66,-817.89 868.46,-822.45"/>
</g>
<!-- C6 -->
<g id="node8" class="node">
<title>C6</title>
<path fill="#78a9ff" stroke="#393939" d="M1255.2,-816C1255.2,-816 1092,-816 1092,-816 1086,-816 1080,-810 1080,-804 1080,-804 1080,-763.2 1080,-763.2 1080,-757.2 1086,-751.2 1092,-751.2 1092,-751.2 1255.2,-751.2 1255.2,-751.2 1261.2,-751.2 1267.2,-757.2 1267.2,-763.2 1267.2,-763.2 1267.2,-804 1267.2,-804 1267.2,-810 1261.2,-816 1255.2,-816"/>
<text xml:space="preserve" text-anchor="middle" x="1173.6" y="-780.05" font-family="IBM Plex Sans" font-size="14.00" fill="#161616">cquery</text>
</g>
<!-- B&#45;&gt;C6 -->
<g id="edge7" class="edge">
<title>B&#45;&gt;C6</title>
<path fill="none" stroke="#393939" stroke-width="2" d="M703.51,-898.38C789.2,-880.63 938.69,-848.6 1065.6,-816 1067.19,-815.59 1068.8,-815.17 1070.41,-814.75"/>
<polygon fill="#393939" stroke="#393939" stroke-width="2" points="1070.68,-817.22 1076.82,-813.05 1069.43,-812.48 1070.68,-817.22"/>
</g>
<!-- D -->
<g id="node9" class="node">
<title>D</title>
<path fill="#42be65" stroke="#393939" d="M715.85,-693.2C715.85,-693.2 551.35,-693.2 551.35,-693.2 545.35,-693.2 539.35,-687.2 539.35,-681.2 539.35,-681.2 539.35,-640.4 539.35,-640.4 539.35,-634.4 545.35,-628.4 551.35,-628.4 551.35,-628.4 715.85,-628.4 715.85,-628.4 721.85,-628.4 727.85,-634.4 727.85,-640.4 727.85,-640.4 727.85,-681.2 727.85,-681.2 727.85,-687.2 721.85,-693.2 715.85,-693.2"/>
<text xml:space="preserve" text-anchor="middle" x="633.6" y="-657.25" font-family="IBM Plex Sans" font-size="14.00" fill="#161616">Assembly and Optimisation</text>
</g>
<!-- C1&#45;&gt;D -->
<g id="edge8" class="edge">
<title>C1&#45;&gt;D</title>
<path fill="none" stroke="#393939" stroke-width="2" d="M187.43,-754.84C192.21,-753.57 196.96,-752.35 201.6,-751.2 312.83,-723.57 441.63,-697.69 529.45,-680.96"/>
<polygon fill="#393939" stroke="#393939" stroke-width="2" points="529.76,-683.4 536.18,-679.69 528.85,-678.58 529.76,-683.4"/>
</g>
<!-- C2&#45;&gt;D -->
<g id="edge9" class="edge">
<title>C2&#45;&gt;D</title>
<path fill="none" stroke="#393939" stroke-width="2" d="M395.15,-750.7C439.35,-734.22 493.4,-714.07 538.86,-697.12"/>
<polygon fill="#393939" stroke="#393939" stroke-width="2" points="539.59,-699.46 545.3,-694.72 537.88,-694.87 539.59,-699.46"/>
</g>
<!-- C3&#45;&gt;D -->
<g id="edge10" class="edge">
<title>C3&#45;&gt;D</title>
<path fill="none" stroke="#393939" stroke-width="2" d="M553.98,-750.86C567.74,-735.46 584.4,-716.83 598.91,-700.6"/>
<polygon fill="#393939" stroke="#393939" stroke-width="2" points="600.56,-702.43 603.4,-695.58 596.9,-699.17 600.56,-702.43"/>
</g>
<!-- C4&#45;&gt;D -->
<g id="edge11" class="edge">
<title>C4&#45;&gt;D</title>
<path fill="none" stroke="#393939" stroke-width="2" d="M713.22,-750.86C699.46,-735.46 682.8,-716.83 668.29,-700.6"/>
<polygon fill="#393939" stroke="#393939" stroke-width="2" points="670.3,-699.17 663.8,-695.58 666.64,-702.43 670.3,-699.17"/>
</g>
<!-- C5&#45;&gt;D -->
<g id="edge12" class="edge">
<title>C5&#45;&gt;D</title>
<path fill="none" stroke="#393939" stroke-width="2" d="M872.05,-750.7C827.85,-734.22 773.8,-714.07 728.34,-697.12"/>
<polygon fill="#393939" stroke="#393939" stroke-width="2" points="729.32,-694.87 721.9,-694.72 727.61,-699.46 729.32,-694.87"/>
</g>
<!-- C6&#45;&gt;D -->
<g id="edge13" class="edge">
<title>C6&#45;&gt;D</title>
<path fill="none" stroke="#393939" stroke-width="2" d="M1079.77,-754.84C1074.99,-753.57 1070.24,-752.35 1065.6,-751.2 954.37,-723.57 825.57,-697.69 737.75,-680.96"/>
<polygon fill="#393939" stroke="#393939" stroke-width="2" points="738.35,-678.58 731.02,-679.69 737.44,-683.4 738.35,-678.58"/>
</g>
<!-- E -->
<g id="node10" class="node">
<title>E</title>
<polygon fill="#161616" stroke="#393939" points="633.6,-570.4 527.09,-530.8 633.6,-491.2 740.11,-530.8 633.6,-570.4"/>
<text xml:space="preserve" text-anchor="middle" x="633.6" y="-527.25" font-family="IBM Plex Sans" font-size="14.00" fill="#f4f4f4">RAG Query Analyzer</text>
</g>
<!-- D&#45;&gt;E -->
<g id="edge14" class="edge">
<title>D&#45;&gt;E</title>
<path fill="none" stroke="#393939" stroke-width="2" d="M633.6,-628.16C633.6,-613.81 633.6,-596.52 633.6,-580.57"/>
<polygon fill="#393939" stroke="#393939" stroke-width="2" points="636.05,-580.88 633.6,-573.88 631.15,-580.88 636.05,-580.88"/>
</g>
<!-- F1 -->
<g id="node11" class="node">
<title>F1</title>
<path fill="#78a9ff" stroke="#393939" d="M499.2,-433.2C499.2,-433.2 336,-433.2 336,-433.2 330,-433.2 324,-427.2 324,-421.2 324,-421.2 324,-380.4 324,-380.4 324,-374.4 330,-368.4 336,-368.4 336,-368.4 499.2,-368.4 499.2,-368.4 505.2,-368.4 511.2,-374.4 511.2,-380.4 511.2,-380.4 511.2,-421.2 511.2,-421.2 511.2,-427.2 505.2,-433.2 499.2,-433.2"/>
<text xml:space="preserve" text-anchor="middle" x="417.6" y="-397.25" font-family="IBM Plex Sans" font-size="14.00" fill="#161616">Vector RAG</text>
</g>
<!-- E&#45;&gt;F1 -->
<g id="edge15" class="edge">
<title>E&#45;&gt;F1</title>
<path fill="none" stroke="#393939" stroke-width="2" d="M593.23,-505.87C561.35,-486.98 516.32,-460.3 479.83,-438.68"/>
<polygon fill="#393939" stroke="#393939" stroke-width="2" points="481.11,-436.59 473.84,-435.13 478.61,-440.8 481.11,-436.59"/>
</g>
<!-- F2 -->
<g id="node12" class="node">
<title>F2</title>
<path fill="#ff7eb6" stroke="#393939" d="M715.2,-433.2C715.2,-433.2 552,-433.2 552,-433.2 546,-433.2 540,-427.2 540,-421.2 540,-421.2 540,-380.4 540,-380.4 540,-374.4 546,-368.4 552,-368.4 552,-368.4 715.2,-368.4 715.2,-368.4 721.2,-368.4 727.2,-374.4 727.2,-380.4 727.2,-380.4 727.2,-421.2 727.2,-421.2 727.2,-427.2 721.2,-433.2 715.2,-433.2"/>
<text xml:space="preserve" text-anchor="middle" x="633.6" y="-397.25" font-family="IBM Plex Sans" font-size="14.00" fill="#161616">Graph RAG</text>
</g>
<!-- E&#45;&gt;F2 -->
<g id="edge16" class="edge">
<title>E&#45;&gt;F2</title>
<path fill="none" stroke="#393939" stroke-width="2" d="M633.6,-490.7C633.6,-475.62 633.6,-458.36 633.6,-443.08"/>
<polygon fill="#393939" stroke="#393939" stroke-width="2" points="636.05,-443.4 633.6,-436.4 631.15,-443.4 636.05,-443.4"/>
</g>
<!-- F3 -->
<g id="node13" class="node">
<title>F3</title>
<path fill="#f1c21b" stroke="#393939" d="M931.2,-433.2C931.2,-433.2 768,-433.2 768,-433.2 762,-433.2 756,-427.2 756,-421.2 756,-421.2 756,-380.4 756,-380.4 756,-374.4 762,-368.4 768,-368.4 768,-368.4 931.2,-368.4 931.2,-368.4 937.2,-368.4 943.2,-374.4 943.2,-380.4 943.2,-380.4 943.2,-421.2 943.2,-421.2 943.2,-427.2 937.2,-433.2 931.2,-433.2"/>
<text xml:space="preserve" text-anchor="middle" x="849.6" y="-397.25" font-family="IBM Plex Sans" font-size="14.00" fill="#161616">Other Modalities</text>
</g>
<!-- E&#45;&gt;F3 -->
<g id="edge17" class="edge">
<title>E&#45;&gt;F3</title>
<path fill="none" stroke="#393939" stroke-width="2" d="M673.97,-505.87C705.85,-486.98 750.88,-460.3 787.37,-438.68"/>
<polygon fill="#393939" stroke="#393939" stroke-width="2" points="788.59,-440.8 793.36,-435.13 786.09,-436.59 788.59,-440.8"/>
</g>
<!-- G -->
<g id="node14" class="node">
<title>G</title>
<path fill="#42be65" stroke="#393939" d="M715.2,-310.4C715.2,-310.4 552,-310.4 552,-310.4 546,-310.4 540,-304.4 540,-298.4 540,-298.4 540,-257.6 540,-257.6 540,-251.6 546,-245.6 552,-245.6 552,-245.6 715.2,-245.6 715.2,-245.6 721.2,-245.6 727.2,-251.6 727.2,-257.6 727.2,-257.6 727.2,-298.4 727.2,-298.4 727.2,-304.4 721.2,-310.4 715.2,-310.4"/>
<text xml:space="preserve" text-anchor="middle" x="633.6" y="-274.45" font-family="IBM Plex Sans" font-size="14.00" fill="#161616">Fusion Layer</text>
</g>
<!-- F1&#45;&gt;G -->
<g id="edge18" class="edge">
<title>F1&#45;&gt;G</title>
<path fill="none" stroke="#393939" stroke-width="2" d="M474.63,-367.9C503.3,-351.87 538.19,-332.36 567.96,-315.71"/>
<polygon fill="#393939" stroke="#393939" stroke-width="2" points="569.07,-317.9 573.98,-312.34 566.67,-313.62 569.07,-317.9"/>
</g>
<!-- F2&#45;&gt;G -->
<g id="edge19" class="edge">
<title>F2&#45;&gt;G</title>
<path fill="none" stroke="#393939" stroke-width="2" d="M633.6,-368.06C633.6,-353.5 633.6,-336.04 633.6,-320.45"/>
<polygon fill="#393939" stroke="#393939" stroke-width="2" points="636.05,-320.55 633.6,-313.55 631.15,-320.55 636.05,-320.55"/>
</g>
<!-- F3&#45;&gt;G -->
<g id="edge20" class="edge">
<title>F3&#45;&gt;G</title>
<path fill="none" stroke="#393939" stroke-width="2" d="M792.57,-367.9C763.9,-351.87 729.01,-332.36 699.24,-315.71"/>
<polygon fill="#393939" stroke="#393939" stroke-width="2" points="700.53,-313.62 693.22,-312.34 698.13,-317.9 700.53,-313.62"/>
</g>
<!-- H -->
<g id="node15" class="node">
<title>H</title>
<path fill="#161616" stroke="#393939" d="M715.2,-187.6C715.2,-187.6 552,-187.6 552,-187.6 546,-187.6 540,-181.6 540,-175.6 540,-175.6 540,-134.8 540,-134.8 540,-128.8 546,-122.8 552,-122.8 552,-122.8 715.2,-122.8 715.2,-122.8 721.2,-122.8 727.2,-128.8 727.2,-134.8 727.2,-134.8 727.2,-175.6 727.2,-175.6 727.2,-181.6 721.2,-187.6 715.2,-187.6"/>
<text xml:space="preserve" text-anchor="middle" x="633.6" y="-151.65" font-family="IBM Plex Sans" font-size="14.00" fill="#f4f4f4">LLM Generator</text>
</g>
<!-- G&#45;&gt;H -->
<g id="edge21" class="edge">
<title>G&#45;&gt;H</title>
<path fill="none" stroke="#393939" stroke-width="2" d="M633.6,-245.26C633.6,-230.7 633.6,-213.24 633.6,-197.65"/>
<polygon fill="#393939" stroke="#393939" stroke-width="2" points="636.05,-197.75 633.6,-190.75 631.15,-197.75 636.05,-197.75"/>
</g>
<!-- I -->
<g id="node16" class="node">
<title>I</title>
<path fill="#161616" stroke="#393939" d="M715.2,-64.8C715.2,-64.8 552,-64.8 552,-64.8 546,-64.8 540,-58.8 540,-52.8 540,-52.8 540,-12 540,-12 540,-6 546,0 552,0 552,0 715.2,0 715.2,0 721.2,0 727.2,-6 727.2,-12 727.2,-12 727.2,-52.8 727.2,-52.8 727.2,-58.8 721.2,-64.8 715.2,-64.8"/>
<text xml:space="preserve" text-anchor="middle" x="633.6" y="-28.85" font-family="IBM Plex Sans" font-size="14.00" fill="#f4f4f4">Final Answer</text>
</g>
<!-- H&#45;&gt;I -->
<g id="edge22" class="edge">
<title>H&#45;&gt;I</title>
<path fill="none" stroke="#393939" stroke-width="2" d="M633.6,-122.46C633.6,-107.9 633.6,-90.44 633.6,-74.85"/>
<polygon fill="#393939" stroke="#393939" stroke-width="2" points="636.05,-74.95 633.6,-67.95 631.15,-74.95 636.05,-74.95"/>
</g>
</g>
</svg>
